<svg width="316" height="53" viewBox="0 0 316 53" fill="none" xmlns="http://www.w3.org/2000/svg">
<circle cx="26.5" cy="26.5" r="26.5" fill="#4D0013"/>
<path d="M63 0V53" stroke="#4D0013"/>
<path d="M74.9531 28H73.5611L78.8523 13.4545H80.2727L85.5639 28H84.1719L79.6122 15.1804H79.5128L74.9531 28ZM75.9545 22.4247H83.1705V23.6179H75.9545V22.4247ZM88.6568 28V13.4545H93.3514C94.3836 13.4545 95.2454 13.6534 95.9366 14.0511C96.6327 14.4441 97.1559 14.9792 97.5063 15.6562C97.8614 16.3333 98.0389 17.0956 98.0389 17.9432C98.0389 18.7907 97.8637 19.5554 97.5134 20.2372C97.163 20.9143 96.6421 21.4517 95.9509 21.8494C95.2596 22.2424 94.4002 22.4389 93.3727 22.4389H89.6795V21.2457H93.3372C94.0995 21.2457 94.7316 21.1037 95.2335 20.8196C95.7354 20.5308 96.1095 20.1378 96.3557 19.6406C96.6066 19.1435 96.7321 18.5777 96.7321 17.9432C96.7321 17.3087 96.6066 16.7429 96.3557 16.2457C96.1095 15.7486 95.733 15.358 95.2264 15.0739C94.7245 14.7898 94.0877 14.6477 93.3159 14.6477H89.9849V28H88.6568ZM100.876 14.6477V13.4545H111.423V14.6477H106.814V28H105.486V14.6477H100.876ZM115.013 28V13.4545H123.451V14.6477H116.341V20.1236H123.003V21.3168H116.341V26.8068H123.593V28H115.013ZM117.421 11.5795C117.179 11.5795 116.966 11.4896 116.782 11.3097C116.602 11.125 116.512 10.9119 116.512 10.6705C116.512 10.41 116.602 10.1946 116.782 10.0241C116.966 9.84896 117.179 9.76136 117.421 9.76136C117.681 9.76136 117.897 9.84896 118.067 10.0241C118.242 10.1946 118.33 10.41 118.33 10.6705C118.33 10.9119 118.242 11.125 118.067 11.3097C117.897 11.4896 117.681 11.5795 117.421 11.5795ZM121.057 11.5795C120.816 11.5795 120.603 11.4896 120.418 11.3097C120.238 11.125 120.148 10.9119 120.148 10.6705C120.148 10.41 120.238 10.1946 120.418 10.0241C120.603 9.84896 120.816 9.76136 121.057 9.76136C121.318 9.76136 121.533 9.84896 121.703 10.0241C121.879 10.1946 121.966 10.41 121.966 10.6705C121.966 10.9119 121.879 11.125 121.703 11.3097C121.533 11.4896 121.318 11.5795 121.057 11.5795ZM127.488 13.4545H129.022L134.299 26.125H134.427L139.704 13.4545H141.238V28H139.988V16.2599H139.874L134.967 28H133.759L128.852 16.2599H128.738V28H127.488V13.4545ZM151.93 13.4545H153.464L158.741 26.125H158.869L164.146 13.4545H165.68V28H164.43V16.2599H164.317L159.409 28H158.202L153.294 16.2599H153.18V28H151.93V13.4545ZM170.169 28H168.777L174.068 13.4545H175.488L180.78 28H179.387L174.828 15.1804H174.728L170.169 28ZM171.17 22.4247H178.386V23.6179H171.17V22.4247ZM183.872 13.4545H185.179V25.6491H185.293L193.908 13.4545H195.201V28H193.872V15.8196H193.759L185.158 28H183.872V13.4545ZM190.84 9.81818H192.033C192.033 10.4953 191.808 11.0445 191.358 11.4659C190.913 11.8873 190.305 12.098 189.533 12.098C188.771 12.098 188.167 11.8873 187.722 11.4659C187.277 11.0445 187.054 10.4953 187.054 9.81818H188.247C188.247 10.1875 188.347 10.5 188.546 10.7557C188.749 11.0066 189.078 11.1321 189.533 11.1321C189.988 11.1321 190.319 11.0066 190.527 10.7557C190.736 10.5 190.84 10.1875 190.84 9.81818ZM211.06 18H209.725C209.625 17.5028 209.445 17.0436 209.185 16.6222C208.929 16.196 208.607 15.8243 208.219 15.5071C207.831 15.1899 207.39 14.9437 206.898 14.7685C206.405 14.5933 205.873 14.5057 205.3 14.5057C204.381 14.5057 203.543 14.7448 202.786 15.223C202.033 15.7012 201.429 16.4044 200.975 17.3324C200.525 18.2557 200.3 19.3873 200.3 20.7273C200.3 22.0767 200.525 23.2131 200.975 24.1364C201.429 25.0597 202.033 25.7604 202.786 26.2386C203.543 26.7121 204.381 26.9489 205.3 26.9489C205.873 26.9489 206.405 26.8613 206.898 26.6861C207.39 26.5109 207.831 26.267 208.219 25.9545C208.607 25.6373 208.929 25.2656 209.185 24.8395C209.445 24.4134 209.625 23.9517 209.725 23.4545H211.06C210.941 24.1222 210.719 24.7448 210.392 25.3224C210.07 25.8954 209.658 26.3973 209.156 26.8281C208.659 27.259 208.086 27.5952 207.438 27.8366C206.789 28.0781 206.076 28.1989 205.3 28.1989C204.078 28.1989 202.994 27.8935 202.047 27.2827C201.1 26.6671 200.357 25.8007 199.817 24.6832C199.282 23.5658 199.014 22.2472 199.014 20.7273C199.014 19.2074 199.282 17.8887 199.817 16.7713C200.357 15.6539 201.1 14.7898 202.047 14.179C202.994 13.5634 204.078 13.2557 205.3 13.2557C206.076 13.2557 206.789 13.3764 207.438 13.6179C208.086 13.8546 208.659 14.1908 209.156 14.6264C209.658 15.0573 210.07 15.5592 210.392 16.1321C210.719 16.705 210.941 17.3277 211.06 18ZM213.899 14.6477V13.4545H224.446V14.6477H219.836V28H218.508V14.6477H213.899ZM228.036 28V13.4545H232.73C233.763 13.4545 234.624 13.6534 235.316 14.0511C236.012 14.4441 236.535 14.9792 236.885 15.6562C237.24 16.3333 237.418 17.0956 237.418 17.9432C237.418 18.7907 237.243 19.5554 236.892 20.2372C236.542 20.9143 236.021 21.4517 235.33 21.8494C234.638 22.2424 233.779 22.4389 232.752 22.4389H229.058V21.2457H232.716C233.478 21.2457 234.111 21.1037 234.612 20.8196C235.114 20.5308 235.488 20.1378 235.735 19.6406C235.986 19.1435 236.111 18.5777 236.111 17.9432C236.111 17.3087 235.986 16.7429 235.735 16.2457C235.488 15.7486 235.112 15.358 234.605 15.0739C234.103 14.7898 233.467 14.6477 232.695 14.6477H229.364V28H228.036ZM241.136 28V13.4545H249.573V14.6477H242.464V20.1236H249.126V21.3168H242.464V26.8068H249.715V28H241.136ZM253.611 28V13.4545H254.939V20.1236H263.192V13.4545H264.52V28H263.192V21.3168H254.939V28H253.611ZM277.407 28L272.4 21.1392H270.304V28H268.976V13.4545H270.304V19.9531H271.618L276.981 13.4545H278.557L273.167 20.0099L278.998 28H277.407ZM293.298 20.7273C293.298 22.2424 293.028 23.5611 292.488 24.6832C291.949 25.8007 291.205 26.6671 290.258 27.2827C289.316 27.8935 288.232 28.1989 287.005 28.1989C285.779 28.1989 284.692 27.8935 283.745 27.2827C282.803 26.6671 282.062 25.8007 281.522 24.6832C280.987 23.5611 280.72 22.2424 280.72 20.7273C280.72 19.2121 280.987 17.8958 281.522 16.7784C282.062 15.6562 282.806 14.7898 283.752 14.179C284.699 13.5634 285.784 13.2557 287.005 13.2557C288.232 13.2557 289.316 13.5634 290.258 14.179C291.205 14.7898 291.949 15.6562 292.488 16.7784C293.028 17.8958 293.298 19.2121 293.298 20.7273ZM292.005 20.7273C292.005 19.4252 291.788 18.3101 291.352 17.3821C290.916 16.4493 290.322 15.7367 289.569 15.2443C288.816 14.7519 287.962 14.5057 287.005 14.5057C286.054 14.5057 285.201 14.7519 284.449 15.2443C283.696 15.7367 283.099 16.447 282.659 17.375C282.223 18.303 282.005 19.4205 282.005 20.7273C282.005 22.0294 282.223 23.1444 282.659 24.0724C283.094 25.0005 283.689 25.7131 284.441 26.2102C285.194 26.7027 286.049 26.9489 287.005 26.9489C287.962 26.9489 288.816 26.7027 289.569 26.2102C290.327 25.7178 290.923 25.0076 291.359 24.0795C291.795 23.1468 292.01 22.0294 292.005 20.7273ZM297.11 28V13.4545H302.018C302.965 13.4545 303.753 13.6203 304.383 13.9517C305.017 14.2831 305.493 14.7353 305.81 15.3082C306.127 15.8812 306.286 16.5322 306.286 17.2614C306.286 17.8674 306.184 18.3859 305.981 18.8168C305.777 19.2476 305.5 19.5956 305.15 19.8608C304.799 20.1259 304.409 20.3177 303.978 20.4361V20.5497C304.447 20.5829 304.901 20.7486 305.341 21.0469C305.782 21.3404 306.144 21.7524 306.428 22.2827C306.712 22.813 306.854 23.4474 306.854 24.1861C306.854 24.92 306.691 25.5758 306.364 26.1534C306.038 26.7263 305.536 27.1785 304.859 27.5099C304.186 27.8366 303.329 28 302.288 28H297.11ZM298.438 26.8068H302.288C303.41 26.8068 304.238 26.5582 304.773 26.0611C305.313 25.5639 305.583 24.9389 305.583 24.1861C305.583 23.6321 305.448 23.1302 305.178 22.6804C304.913 22.2259 304.537 21.866 304.049 21.6009C303.566 21.3357 302.998 21.2031 302.344 21.2031H298.438V26.8068ZM298.438 20.0241H302.138C302.711 20.0241 303.213 19.9058 303.644 19.669C304.075 19.4323 304.411 19.1056 304.653 18.6889C304.894 18.2723 305.015 17.7964 305.015 17.2614C305.015 16.4896 304.764 15.8622 304.262 15.3793C303.76 14.8916 303.012 14.6477 302.018 14.6477H298.438V20.0241Z" fill="#4D0013"/>
<path d="M76.16 42.04C75.66 42.04 75.2133 41.9267 74.82 41.7C74.4333 41.4733 74.1233 41.16 73.89 40.76C73.6633 40.36 73.55 39.9033 73.55 39.39C73.55 38.87 73.6633 38.4133 73.89 38.02C74.1233 37.62 74.4333 37.3067 74.82 37.08C75.2133 36.8533 75.66 36.74 76.16 36.74C76.66 36.74 77.1067 36.8533 77.5 37.08C77.8933 37.3067 78.2033 37.62 78.43 38.02C78.6567 38.4133 78.77 38.87 78.77 39.39C78.77 39.9033 78.6567 40.36 78.43 40.76C78.2033 41.16 77.8933 41.4733 77.5 41.7C77.1067 41.9267 76.66 42.04 76.16 42.04ZM76.16 41.59C76.56 41.59 76.92 41.5 77.24 41.32C77.56 41.1333 77.81 40.8733 77.99 40.54C78.17 40.2067 78.26 39.8233 78.26 39.39C78.26 38.95 78.17 38.5667 77.99 38.24C77.81 37.9067 77.56 37.65 77.24 37.47C76.92 37.2833 76.56 37.19 76.16 37.19C75.76 37.19 75.4 37.2833 75.08 37.47C74.7667 37.65 74.5167 37.9067 74.33 38.24C74.15 38.5667 74.06 38.95 74.06 39.39C74.06 39.8233 74.15 40.2067 74.33 40.54C74.5167 40.8733 74.7667 41.1333 75.08 41.32C75.4 41.5 75.76 41.59 76.16 41.59ZM80.3984 42V36.78H84.9584V42H84.4584V37.08L84.5984 37.23H80.7584L80.8984 37.08V42H80.3984ZM92.1271 42V36.78H92.6271V42H92.1271ZM89.1771 38.68C89.8304 38.6867 90.3238 38.83 90.6571 39.11C90.9971 39.3833 91.1671 39.7867 91.1671 40.32C91.1671 40.8733 90.9871 41.2967 90.6271 41.59C90.2671 41.8833 89.7471 42.0267 89.0671 42.02L87.1171 42V36.78H87.6171V38.66L89.1771 38.68ZM89.0471 41.62C89.5804 41.6267 89.9838 41.52 90.2571 41.3C90.5304 41.08 90.6671 40.7533 90.6671 40.32C90.6671 39.9 90.5304 39.5867 90.2571 39.38C89.9904 39.1733 89.5871 39.0667 89.0471 39.06L87.6171 39.05V41.6L89.0471 41.62ZM95.7234 42V37.08L95.8634 37.23H93.6834V36.78H98.2634V37.23H96.0834L96.2234 37.08V42H95.7234ZM98.4042 43.43L98.7942 41.74L98.8442 42.03C98.7176 42.03 98.6109 41.99 98.5242 41.91C98.4442 41.83 98.4042 41.73 98.4042 41.61C98.4042 41.49 98.4442 41.39 98.5242 41.31C98.6109 41.23 98.7109 41.19 98.8242 41.19C98.9509 41.19 99.0509 41.2333 99.1242 41.32C99.2042 41.4 99.2442 41.4967 99.2442 41.61C99.2442 41.6567 99.2409 41.7033 99.2342 41.75C99.2276 41.7967 99.2176 41.8433 99.2042 41.89C99.1909 41.9367 99.1742 41.9967 99.1542 42.07L98.7642 43.43H98.4042ZM105.585 42.04C105.078 42.04 104.625 41.9267 104.225 41.7C103.831 41.4733 103.518 41.16 103.285 40.76C103.058 40.36 102.945 39.9033 102.945 39.39C102.945 38.87 103.058 38.41 103.285 38.01C103.518 37.61 103.831 37.3 104.225 37.08C104.625 36.8533 105.078 36.74 105.585 36.74C106.005 36.74 106.385 36.82 106.725 36.98C107.071 37.14 107.351 37.38 107.565 37.7L107.195 37.97C107.008 37.7033 106.775 37.5067 106.495 37.38C106.215 37.2533 105.911 37.19 105.585 37.19C105.178 37.19 104.811 37.2833 104.485 37.47C104.165 37.65 103.911 37.9067 103.725 38.24C103.545 38.5667 103.455 38.95 103.455 39.39C103.455 39.83 103.545 40.2167 103.725 40.55C103.911 40.8767 104.165 41.1333 104.485 41.32C104.811 41.5 105.178 41.59 105.585 41.59C105.911 41.59 106.215 41.5267 106.495 41.4C106.775 41.2733 107.008 41.0767 107.195 40.81L107.565 41.08C107.351 41.4 107.071 41.64 106.725 41.8C106.385 41.96 106.005 42.04 105.585 42.04ZM111.033 42.04C110.533 42.04 110.086 41.9267 109.693 41.7C109.306 41.4733 108.996 41.16 108.763 40.76C108.536 40.36 108.423 39.9033 108.423 39.39C108.423 38.87 108.536 38.4133 108.763 38.02C108.996 37.62 109.306 37.3067 109.693 37.08C110.086 36.8533 110.533 36.74 111.033 36.74C111.533 36.74 111.98 36.8533 112.373 37.08C112.766 37.3067 113.076 37.62 113.303 38.02C113.53 38.4133 113.643 38.87 113.643 39.39C113.643 39.9033 113.53 40.36 113.303 40.76C113.076 41.16 112.766 41.4733 112.373 41.7C111.98 41.9267 111.533 42.04 111.033 42.04ZM111.033 41.59C111.433 41.59 111.793 41.5 112.113 41.32C112.433 41.1333 112.683 40.8733 112.863 40.54C113.043 40.2067 113.133 39.8233 113.133 39.39C113.133 38.95 113.043 38.5667 112.863 38.24C112.683 37.9067 112.433 37.65 112.113 37.47C111.793 37.2833 111.433 37.19 111.033 37.19C110.633 37.19 110.273 37.2833 109.953 37.47C109.64 37.65 109.39 37.9067 109.203 38.24C109.023 38.5667 108.933 38.95 108.933 39.39C108.933 39.8233 109.023 40.2067 109.203 40.54C109.39 40.8733 109.64 41.1333 109.953 41.32C110.273 41.5 110.633 41.59 111.033 41.59ZM116.542 42.05C116.182 42.05 115.819 41.9933 115.452 41.88C115.085 41.7667 114.762 41.5933 114.482 41.36L114.672 40.99C114.925 41.2033 115.219 41.3633 115.552 41.47C115.885 41.57 116.219 41.6167 116.552 41.61C116.892 41.61 117.189 41.56 117.442 41.46C117.702 41.36 117.902 41.2233 118.042 41.05C118.182 40.8767 118.252 40.6833 118.252 40.47C118.252 40.1567 118.112 39.9133 117.832 39.74C117.552 39.5667 117.169 39.48 116.682 39.48H115.842V39.1H116.662C116.942 39.1 117.189 39.0633 117.402 38.99C117.622 38.9167 117.792 38.81 117.912 38.67C118.039 38.5233 118.102 38.3533 118.102 38.16C118.102 37.9467 118.029 37.7667 117.882 37.62C117.742 37.4667 117.549 37.3533 117.302 37.28C117.062 37.2067 116.792 37.17 116.492 37.17C116.232 37.1767 115.962 37.2167 115.682 37.29C115.409 37.3633 115.139 37.4733 114.872 37.62L114.712 37.22C115.005 37.06 115.302 36.94 115.602 36.86C115.902 36.78 116.205 36.7367 116.512 36.73C116.899 36.7233 117.252 36.7767 117.572 36.89C117.892 36.9967 118.145 37.1533 118.332 37.36C118.519 37.56 118.612 37.8033 118.612 38.09C118.612 38.35 118.532 38.5767 118.372 38.77C118.219 38.9567 118.005 39.1033 117.732 39.21C117.465 39.3167 117.165 39.37 116.832 39.37L116.872 39.21C117.472 39.21 117.935 39.3267 118.262 39.56C118.595 39.7933 118.762 40.1067 118.762 40.5C118.762 40.8133 118.662 41.0867 118.462 41.32C118.262 41.5533 117.992 41.7333 117.652 41.86C117.319 41.9867 116.949 42.05 116.542 42.05ZM124.086 41.76V37.23H121.366L121.306 38.53C121.292 38.8967 121.269 39.2633 121.236 39.63C121.202 39.99 121.149 40.3233 121.076 40.63C121.002 40.93 120.899 41.1733 120.766 41.36C120.639 41.5467 120.472 41.65 120.266 41.67L119.766 41.56C119.979 41.5733 120.152 41.4967 120.286 41.33C120.419 41.1567 120.522 40.9233 120.596 40.63C120.669 40.3367 120.722 40.0067 120.756 39.64C120.796 39.2667 120.826 38.8867 120.846 38.5L120.916 36.78H124.586V41.76H124.086ZM119.536 43.3V41.56H125.426V43.3H124.956V42H120.016V43.3H119.536ZM130.162 42V40.81L130.142 40.63V38.67C130.142 38.1833 130.009 37.8133 129.742 37.56C129.482 37.3067 129.099 37.18 128.592 37.18C128.232 37.18 127.896 37.2433 127.582 37.37C127.276 37.49 127.012 37.6467 126.792 37.84L126.542 37.48C126.802 37.2467 127.116 37.0667 127.482 36.94C127.849 36.8067 128.232 36.74 128.632 36.74C129.279 36.74 129.776 36.9033 130.122 37.23C130.469 37.5567 130.642 38.0433 130.642 38.69V42H130.162ZM128.282 42.04C127.896 42.04 127.559 41.98 127.272 41.86C126.992 41.7333 126.776 41.5567 126.622 41.33C126.476 41.1033 126.402 40.8433 126.402 40.55C126.402 40.2833 126.462 40.0433 126.582 39.83C126.709 39.61 126.916 39.4333 127.202 39.3C127.489 39.16 127.872 39.09 128.352 39.09H130.272V39.48H128.362C127.822 39.48 127.442 39.58 127.222 39.78C127.009 39.98 126.902 40.23 126.902 40.53C126.902 40.8633 127.029 41.13 127.282 41.33C127.536 41.53 127.892 41.63 128.352 41.63C128.792 41.63 129.162 41.53 129.462 41.33C129.769 41.13 129.996 40.84 130.142 40.46L130.282 40.8C130.142 41.18 129.902 41.4833 129.562 41.71C129.229 41.93 128.802 42.04 128.282 42.04ZM132.674 42V36.78H133.174V39.12H134.774V39.58H133.174V42H132.674ZM137.044 42.04C136.557 42.04 136.12 41.9267 135.734 41.7C135.347 41.4733 135.044 41.16 134.824 40.76C134.604 40.36 134.494 39.9033 134.494 39.39C134.494 38.87 134.604 38.4133 134.824 38.02C135.044 37.62 135.347 37.3067 135.734 37.08C136.12 36.8533 136.557 36.74 137.044 36.74C137.537 36.74 137.974 36.8533 138.354 37.08C138.74 37.3067 139.044 37.62 139.264 38.02C139.484 38.4133 139.594 38.87 139.594 39.39C139.594 39.9033 139.484 40.36 139.264 40.76C139.044 41.16 138.74 41.4733 138.354 41.7C137.974 41.9267 137.537 42.04 137.044 42.04ZM137.044 41.6C137.437 41.6 137.787 41.5067 138.094 41.32C138.407 41.1333 138.65 40.8733 138.824 40.54C139.004 40.2067 139.094 39.8233 139.094 39.39C139.094 38.95 139.004 38.5667 138.824 38.24C138.65 37.9067 138.407 37.65 138.094 37.47C137.787 37.2833 137.437 37.19 137.044 37.19C136.657 37.19 136.307 37.2833 135.994 37.47C135.68 37.65 135.434 37.9067 135.254 38.24C135.08 38.5667 134.994 38.95 134.994 39.39C134.994 39.8233 135.08 40.2067 135.254 40.54C135.434 40.8733 135.68 41.1333 135.994 41.32C136.307 41.5067 136.657 41.6 137.044 41.6ZM144.628 41.56L144.508 41.71V36.78H145.008V41.71L144.858 41.56H147.898L147.758 41.71V36.78H148.258V42H141.238V36.78H141.738V41.71L141.598 41.56H144.628ZM148.598 43.18V41.85L148.738 42H147.718V41.56H149.078V43.18H148.598ZM150.418 42V36.78H150.918V41.23L154.638 36.78H155.078V42H154.578V37.55L150.858 42H150.418ZM157.234 42V36.78H157.734V41.23L161.454 36.78H161.894V42H161.394V37.55L157.674 42H157.234ZM159.544 35.98C159.138 35.98 158.801 35.8733 158.534 35.66C158.274 35.44 158.138 35.1367 158.124 34.75H158.494C158.508 35.0233 158.611 35.24 158.804 35.4C159.004 35.56 159.251 35.64 159.544 35.64C159.838 35.64 160.081 35.56 160.274 35.4C160.474 35.24 160.578 35.0233 160.584 34.75H160.964C160.958 35.1367 160.821 35.44 160.554 35.66C160.294 35.8733 159.958 35.98 159.544 35.98ZM169.249 42.04C168.789 42.04 168.372 41.9333 167.999 41.72C167.632 41.5067 167.339 41.2033 167.119 40.81C166.906 40.41 166.799 39.9367 166.799 39.39C166.799 38.8433 166.906 38.3733 167.119 37.98C167.339 37.58 167.632 37.2733 167.999 37.06C168.372 36.8467 168.789 36.74 169.249 36.74C169.742 36.74 170.182 36.8533 170.569 37.08C170.962 37.3 171.269 37.61 171.489 38.01C171.716 38.41 171.829 38.87 171.829 39.39C171.829 39.91 171.716 40.37 171.489 40.77C171.269 41.17 170.962 41.4833 170.569 41.71C170.182 41.93 169.742 42.04 169.249 42.04ZM166.629 43.94V36.78H167.109V38.49L167.029 39.4L167.129 40.31V43.94H166.629ZM169.219 41.59C169.619 41.59 169.979 41.5 170.299 41.32C170.619 41.1333 170.869 40.8733 171.049 40.54C171.236 40.2067 171.329 39.8233 171.329 39.39C171.329 38.95 171.236 38.5667 171.049 38.24C170.869 37.9067 170.619 37.65 170.299 37.47C169.979 37.2833 169.619 37.19 169.219 37.19C168.819 37.19 168.459 37.2833 168.139 37.47C167.826 37.65 167.576 37.9067 167.389 38.24C167.209 38.5667 167.119 38.95 167.119 39.39C167.119 39.8233 167.209 40.2067 167.389 40.54C167.576 40.8733 167.826 41.1333 168.139 41.32C168.459 41.5 168.819 41.59 169.219 41.59ZM175.615 42.04C175.088 42.04 174.622 41.9267 174.215 41.7C173.815 41.4733 173.498 41.16 173.265 40.76C173.038 40.36 172.925 39.9033 172.925 39.39C172.925 38.87 173.032 38.4133 173.245 38.02C173.465 37.62 173.765 37.3067 174.145 37.08C174.525 36.8533 174.952 36.74 175.425 36.74C175.898 36.74 176.322 36.85 176.695 37.07C177.075 37.29 177.372 37.6 177.585 38C177.805 38.3933 177.915 38.85 177.915 39.37C177.915 39.39 177.912 39.4133 177.905 39.44C177.905 39.46 177.905 39.4833 177.905 39.51H173.295V39.12H177.635L177.435 39.31C177.442 38.9033 177.355 38.54 177.175 38.22C177.002 37.8933 176.765 37.64 176.465 37.46C176.165 37.2733 175.818 37.18 175.425 37.18C175.038 37.18 174.692 37.2733 174.385 37.46C174.085 37.64 173.848 37.8933 173.675 38.22C173.502 38.54 173.415 38.9067 173.415 39.32V39.41C173.415 39.8367 173.508 40.2167 173.695 40.55C173.888 40.8767 174.152 41.1333 174.485 41.32C174.818 41.5 175.198 41.59 175.625 41.59C175.958 41.59 176.268 41.53 176.555 41.41C176.848 41.29 177.095 41.1067 177.295 40.86L177.585 41.19C177.358 41.47 177.072 41.6833 176.725 41.83C176.385 41.97 176.015 42.04 175.615 42.04ZM180.673 42.05C180.313 42.05 179.949 41.9933 179.583 41.88C179.216 41.7667 178.893 41.5933 178.613 41.36L178.803 40.99C179.056 41.2033 179.349 41.3633 179.683 41.47C180.016 41.57 180.349 41.6167 180.683 41.61C181.023 41.61 181.319 41.56 181.573 41.46C181.833 41.36 182.033 41.2233 182.173 41.05C182.313 40.8767 182.383 40.6833 182.383 40.47C182.383 40.1567 182.243 39.9133 181.963 39.74C181.683 39.5667 181.299 39.48 180.813 39.48H179.973V39.1H180.793C181.073 39.1 181.319 39.0633 181.533 38.99C181.753 38.9167 181.923 38.81 182.043 38.67C182.169 38.5233 182.233 38.3533 182.233 38.16C182.233 37.9467 182.159 37.7667 182.013 37.62C181.873 37.4667 181.679 37.3533 181.433 37.28C181.193 37.2067 180.923 37.17 180.623 37.17C180.363 37.1767 180.093 37.2167 179.813 37.29C179.539 37.3633 179.269 37.4733 179.003 37.62L178.843 37.22C179.136 37.06 179.433 36.94 179.733 36.86C180.033 36.78 180.336 36.7367 180.643 36.73C181.029 36.7233 181.383 36.7767 181.703 36.89C182.023 36.9967 182.276 37.1533 182.463 37.36C182.649 37.56 182.743 37.8033 182.743 38.09C182.743 38.35 182.663 38.5767 182.503 38.77C182.349 38.9567 182.136 39.1033 181.863 39.21C181.596 39.3167 181.296 39.37 180.963 39.37L181.003 39.21C181.603 39.21 182.066 39.3267 182.393 39.56C182.726 39.7933 182.893 40.1067 182.893 40.5C182.893 40.8133 182.793 41.0867 182.593 41.32C182.393 41.5533 182.123 41.7333 181.783 41.86C181.449 41.9867 181.079 42.05 180.673 42.05ZM184.586 43.98C184.346 43.98 184.12 43.94 183.906 43.86C183.7 43.78 183.523 43.6633 183.376 43.51L183.626 43.13C183.76 43.27 183.903 43.3733 184.056 43.44C184.216 43.5067 184.396 43.54 184.596 43.54C184.836 43.54 185.046 43.4733 185.226 43.34C185.413 43.2067 185.586 42.9633 185.746 42.61L186.106 41.81L186.176 41.72L188.386 36.78H188.896L186.216 42.71C186.076 43.03 185.923 43.28 185.756 43.46C185.596 43.6467 185.42 43.78 185.226 43.86C185.033 43.94 184.82 43.98 184.586 43.98ZM186.096 42.13L183.676 36.78H184.206L186.406 41.69L186.096 42.13ZM188.89 41.98L188.94 41.55C188.98 41.5567 189.02 41.5667 189.06 41.58C189.107 41.5867 189.147 41.59 189.18 41.59C189.407 41.59 189.587 41.5067 189.72 41.34C189.853 41.1667 189.953 40.9367 190.02 40.65C190.093 40.3633 190.143 40.04 190.17 39.68C190.203 39.32 190.23 38.9533 190.25 38.58L190.34 36.78H194V42H193.5V37.07L193.64 37.23H190.66L190.79 37.06L190.71 38.62C190.683 39.0733 190.647 39.5067 190.6 39.92C190.553 40.3333 190.483 40.7 190.39 41.02C190.297 41.34 190.163 41.5933 189.99 41.78C189.817 41.96 189.593 42.05 189.32 42.05C189.253 42.05 189.183 42.0433 189.11 42.03C189.043 42.0167 188.97 42 188.89 41.98ZM198.25 38.68C198.897 38.6867 199.39 38.83 199.73 39.11C200.07 39.3833 200.24 39.7867 200.24 40.32C200.24 40.8733 200.06 41.2967 199.7 41.59C199.34 41.8833 198.817 42.0267 198.13 42.02L196.16 42V36.78H196.66V38.66L198.25 38.68ZM198.12 41.62C198.653 41.6267 199.053 41.52 199.32 41.3C199.593 41.08 199.73 40.7533 199.73 40.32C199.73 39.9 199.597 39.5867 199.33 39.38C199.063 39.1733 198.66 39.0667 198.12 39.06L196.66 39.05V41.6L198.12 41.62ZM202.1 42V37.08L202.24 37.23H200.06V36.78H204.64V37.23H202.46L202.6 37.08V42H202.1ZM208.971 42V40.81L208.951 40.63V38.67C208.951 38.1833 208.818 37.8133 208.551 37.56C208.291 37.3067 207.908 37.18 207.401 37.18C207.041 37.18 206.704 37.2433 206.391 37.37C206.084 37.49 205.821 37.6467 205.601 37.84L205.351 37.48C205.611 37.2467 205.924 37.0667 206.291 36.94C206.658 36.8067 207.041 36.74 207.441 36.74C208.088 36.74 208.584 36.9033 208.931 37.23C209.278 37.5567 209.451 38.0433 209.451 38.69V42H208.971ZM207.091 42.04C206.704 42.04 206.368 41.98 206.081 41.86C205.801 41.7333 205.584 41.5567 205.431 41.33C205.284 41.1033 205.211 40.8433 205.211 40.55C205.211 40.2833 205.271 40.0433 205.391 39.83C205.518 39.61 205.724 39.4333 206.011 39.3C206.298 39.16 206.681 39.09 207.161 39.09H209.081V39.48H207.171C206.631 39.48 206.251 39.58 206.031 39.78C205.818 39.98 205.711 40.23 205.711 40.53C205.711 40.8633 205.838 41.13 206.091 41.33C206.344 41.53 206.701 41.63 207.161 41.63C207.601 41.63 207.971 41.53 208.271 41.33C208.578 41.13 208.804 40.84 208.951 40.46L209.091 40.8C208.951 41.18 208.711 41.4833 208.371 41.71C208.038 41.93 207.611 42.04 207.091 42.04ZM212.432 42V37.08L212.572 37.23H210.392V36.78H214.972V37.23H212.792L212.932 37.08V42H212.432Z" fill="#4D0013"/>
</svg>
