<svg width="290" height="60" viewBox="0 0 290 60" fill="none" xmlns="http://www.w3.org/2000/svg">
<path fill-rule="evenodd" clip-rule="evenodd" d="M120.733 55.3629L78.7615 55.3714V51.1641H120.64C124.763 51.1131 128.14 48.067 128.14 44.3224C128.14 41.0491 125.583 38.2428 122.2 37.5656C121.172 37.3109 120.148 37.1326 118.81 36.9054C118.81 36.9054 115.703 36.587 107.327 35.566C100.45 34.8251 96.9395 34.5088 88.1908 33.3965C86.8701 33.2288 86.2808 33.163 84.7396 32.8C83.0183 32.3967 81.7527 31.7577 80.326 30.7112C78.734 29.5373 78.5156 27.9728 78.5156 26.0157C78.5156 22.2138 81.4877 18.9766 85.3268 18.9766H100.944V23.2157C95.2203 23.2157 92.3945 23.1924 86.268 23.2157C84.6802 23.2157 83.3532 24.466 83.3532 26.0326C83.3532 27.2362 84.0316 28.1342 85.1678 28.5333C86.2278 28.9069 90.4824 29.3739 92.0426 29.6201C93.2043 29.8133 107.323 31.416 107.323 31.416C107.323 31.416 121.146 33.0993 122.16 33.2564C128.343 33.9909 132.638 38.5124 132.638 44.2821C132.638 50.3914 127.512 55.3502 121.185 55.3502L120.739 55.3396L120.735 55.3608L120.733 55.3629Z" fill="#FEFEFE"/>
<path fill-rule="evenodd" clip-rule="evenodd" d="M120.733 55.3629L78.7615 55.3714V51.1641H120.64C124.763 51.1131 128.14 48.067 128.14 44.3224C128.14 41.0491 125.583 38.2428 122.2 37.5656C121.172 37.3109 120.148 37.1326 118.81 36.9054C118.81 36.9054 115.703 36.587 107.327 35.566C100.45 34.8251 96.9395 34.5088 88.1908 33.3965C86.8701 33.2288 86.2808 33.163 84.7396 32.8C83.0183 32.3967 81.7527 31.7577 80.326 30.7112C78.734 29.5373 78.5156 27.9728 78.5156 26.0157C78.5156 22.2138 81.4877 18.9766 85.3268 18.9766H100.944V23.2157C95.2203 23.2157 92.3945 23.1924 86.268 23.2157C84.6802 23.2157 83.3532 24.466 83.3532 26.0326C83.3532 27.2362 84.0316 28.1342 85.1678 28.5333C86.2278 28.9069 90.4824 29.3739 92.0426 29.6201C93.2043 29.8133 107.323 31.416 107.323 31.416C107.323 31.416 121.146 33.0993 122.16 33.2564C128.343 33.9909 132.638 38.5124 132.638 44.2821C132.638 50.3914 127.512 55.3502 121.185 55.3502L120.739 55.3396L120.735 55.3608L120.733 55.3629Z" fill="#FEFEFE"/>
<path d="M71.575 0.582031H67.3438V14.5201H71.575V0.582031Z" fill="#FEFEFE"/>
<path d="M71.5746 19.0977H67.3242V55.6432H71.5746V19.0977Z" fill="#FEFEFE"/>
<path d="M71.575 0.582031H67.3438V14.5201H71.575V0.582031Z" fill="#FEFEFE"/>
<path d="M71.5746 19.0977H67.3242V55.6432H71.5746V19.0977Z" fill="#FEFEFE"/>
<path fill-rule="evenodd" clip-rule="evenodd" d="M32.8328 55.7428L28.5357 55.7513V25.4424C28.5357 24.5763 28.2644 23.7081 27.5436 23.2305C26.9882 22.8526 26.3459 22.7635 25.8689 22.7847C25.0697 22.8229 24.4931 22.7847 23.2 24.7822L5.17251 55.7428L0 55.7364L4.3606 48.1454C6.01623 46.1691 18.036 24.7822 18.036 24.7822C20.3191 21.0928 22.0256 19.0189 24.739 18.8809C25.7248 18.8321 26.189 18.7642 27.1748 18.8809C28.6078 19.0529 29.2819 19.4498 30.2613 20.1227C31.0287 20.6598 31.546 21.3624 32.0251 22.22C32.5593 23.1604 32.8179 24.1348 32.8222 25.2216C32.8857 34.963 32.8603 38.508 32.8433 46.9885C36.0062 42.0658 45.7216 24.7822 45.7216 24.7822C47.9984 21.0928 49.707 19.0253 52.4247 18.8809C53.4126 18.8321 53.8726 18.7642 54.8562 18.8809C56.2914 19.0529 56.9591 19.4541 57.9406 20.1227C58.7102 20.6598 59.2253 21.3624 59.7108 22.22C60.2471 23.1604 60.5036 24.1348 60.5121 25.2216C60.5863 37.0858 60.5036 43.7767 60.5036 55.6409H56.2193V25.4403C56.2193 24.5827 55.9522 23.7102 55.2314 23.2284C54.676 22.8505 54.0316 22.7698 53.5504 22.7826C52.7597 22.8208 52.1788 22.7826 50.8899 24.7801L32.8328 55.7407V55.7428Z" fill="#FEFEFE"/>
<path d="M106.552 17.6445C107.15 17.6445 107.733 17.7995 108.303 18.1052C108.873 18.4109 109.316 18.8524 109.634 19.4234C109.952 19.9944 110.111 20.5909 110.111 21.2108C110.111 21.8306 109.954 22.4165 109.64 22.9833C109.327 23.5501 108.888 23.9895 108.324 24.3037C107.758 24.6178 107.169 24.7728 106.552 24.7728C105.935 24.7728 105.343 24.6157 104.78 24.3037C104.214 23.9895 103.775 23.5501 103.461 22.9833C103.147 22.4165 102.988 21.8243 102.988 21.2108C102.988 20.5973 103.147 19.9944 103.467 19.4234C103.787 18.8524 104.231 18.4109 104.801 18.1052C105.371 17.7974 105.954 17.6445 106.552 17.6445ZM106.552 18.2368C106.052 18.2368 105.564 18.3663 105.091 18.6231C104.618 18.88 104.247 19.2472 103.98 19.7248C103.713 20.2025 103.58 20.6992 103.58 21.215C103.58 21.7309 103.711 22.2212 103.974 22.6925C104.237 23.1637 104.604 23.531 105.076 23.7921C105.549 24.0553 106.041 24.1869 106.554 24.1869C107.067 24.1869 107.559 24.0553 108.031 23.7921C108.504 23.5288 108.869 23.1616 109.132 22.6925C109.392 22.2212 109.524 21.7287 109.524 21.215C109.524 20.7013 109.39 20.2003 109.125 19.7248C108.86 19.2472 108.489 18.88 108.015 18.6231C107.54 18.3663 107.054 18.2368 106.556 18.2368H106.552ZM104.989 23.185V19.347H106.306C106.755 19.347 107.082 19.3831 107.283 19.4531C107.485 19.5232 107.644 19.6484 107.764 19.8246C107.885 20.0008 107.945 20.1897 107.945 20.3871C107.945 20.6674 107.845 20.9115 107.644 21.1195C107.444 21.3275 107.179 21.4443 106.849 21.4698C106.984 21.5271 107.092 21.595 107.175 21.6735C107.33 21.8243 107.518 22.079 107.741 22.4335L108.21 23.185H107.455L107.116 22.58C106.849 22.1045 106.632 21.8073 106.469 21.6863C106.357 21.5971 106.189 21.5525 105.973 21.5525H105.608V23.1828H104.992L104.989 23.185ZM105.606 21.024H106.357C106.715 21.024 106.961 20.9709 107.09 20.8648C107.22 20.7565 107.285 20.6164 107.285 20.4402C107.285 20.3277 107.253 20.2258 107.19 20.1345C107.126 20.0454 107.039 19.9775 106.929 19.9329C106.817 19.8883 106.611 19.8671 106.308 19.8671H105.604V21.024H105.606Z" fill="#FEFEFE"/>
<path d="M195.785 34.0076L195.9 34.0458C196.014 34.0841 198.645 34.8992 200.862 34.8992C203.192 34.8992 205.56 33.9503 207.377 32.2818C209.005 30.7832 209.914 28.7177 209.914 26.4591C209.914 24.2005 209.024 22.1159 207.396 20.6172C205.749 19.0994 203.419 18.2461 200.862 18.2461H195.787V34.0055L195.785 34.0076ZM200.841 32.908C199.554 32.908 198.435 32.6809 198.02 32.5854L197.962 32.5663V20.2203H200.841C204.837 20.2203 207.62 22.7612 207.62 26.4018C207.64 30.0996 204.703 32.9059 200.841 32.9059V32.908Z" fill="#FEFEFE"/>
<path d="M217.51 22.2305C215.824 22.2305 214.27 22.8949 213.153 24.09C212.036 25.266 211.43 26.8581 211.43 28.5478C211.43 30.35 212.074 31.923 213.287 33.099C214.442 34.2368 216.032 34.8631 217.755 34.8631C219.896 34.8631 221.486 34.1604 222.964 32.5874L223.078 32.4728L221.696 31.2968L221.601 31.3923C220.503 32.511 219.29 33.0226 217.813 33.0226C215.597 33.0226 213.967 31.6195 213.645 29.4564L213.626 29.3799H223.399L223.418 29.2483C223.437 29.0403 223.437 28.8493 223.437 28.6794C223.437 26.8963 222.888 25.2851 221.883 24.1282C220.804 22.8758 219.288 22.2326 217.507 22.2326L217.51 22.2305ZM221.241 27.7497H213.609L213.628 27.6732C213.95 25.4741 215.502 24.0136 217.473 24.0136C219.082 24.0136 220.92 24.9816 221.243 27.6732V27.7497H221.241Z" fill="#FEFEFE"/>
<path d="M234.519 34.6134H236.66V27.084C236.66 25.6426 236.206 24.4093 235.373 23.5368C234.502 22.6453 233.27 22.1719 231.775 22.1719C228.064 22.1719 225.715 23.4434 225.619 23.4986L225.543 23.5368V34.5943H227.684V24.7892L227.722 24.7701C228.82 24.2777 229.863 24.0675 231.245 24.0675C232.267 24.0675 233.1 24.3902 233.671 24.9782C234.22 25.5662 234.523 26.4386 234.523 27.5V34.6113L234.519 34.6134Z" fill="#FEFEFE"/>
<path d="M257.486 38.2969H259.625V34.0493L259.721 34.0875C261.275 34.6946 262.316 34.8835 263.906 34.8835C267.448 34.8835 269.644 32.4551 269.644 28.5301C269.644 26.5771 269.057 24.9638 267.94 23.8642C266.842 22.7837 265.25 22.2148 263.337 22.2148C260.136 22.2148 257.675 23.4864 257.58 23.5416L257.503 23.5798L257.484 38.2969H257.486ZM263.869 32.9858C262.506 32.9858 261.313 32.8159 259.589 31.9244L259.551 31.9053V24.8683L259.589 24.8492C259.931 24.6794 261.198 24.0914 263.149 24.0914C265.989 24.0914 267.429 25.59 267.429 28.5492C267.429 31.5083 266.161 32.9858 263.869 32.9858Z" fill="#FEFEFE"/>
<path d="M259.365 43.0742C255.519 43.0742 253.039 45.5579 253.039 49.4086C253.039 51.3233 253.569 52.9366 254.593 54.0744C255.56 55.1549 256.942 55.762 258.477 55.762C260.011 55.762 261.26 55.4584 262.964 54.6433L263.06 54.6051V55.5158H265.201V44.4583L265.125 44.4201C265.029 44.3627 262.587 43.0742 259.367 43.0742H259.365ZM258.816 53.8833C257.679 53.8833 256.789 53.5034 256.164 52.7264C255.557 51.9686 255.235 50.8308 255.235 49.4446C255.235 45.7468 257.584 44.9868 259.534 44.9868C261.485 44.9868 262.754 45.5748 263.094 45.7447L263.132 45.7638V52.459L263.094 52.4781C261.485 53.427 260.122 53.8812 258.814 53.8812L258.816 53.8833Z" fill="#FEFEFE"/>
<path d="M271.559 34.6149H273.698V18.8555H271.559V34.6149Z" fill="#FEFEFE"/>
<path d="M276.109 37.6888L276.243 37.7461C277.171 38.1813 277.947 38.3532 278.933 38.3532C280.902 38.3532 282.134 37.3492 283.194 34.9016L288.478 22.4219H286.187L282.305 32.0932L277.911 22.4219H275.543L281.243 34.407L281.224 34.4261C280.544 35.9248 279.918 36.4746 278.856 36.4746C278.117 36.4746 277.587 36.36 276.98 36.0585L276.849 35.9821L276.111 37.6888H276.109Z" fill="#FEFEFE"/>
<path d="M194.971 53.0311L195.085 53.1267C197.169 54.9098 199.365 55.744 202.036 55.744C203.722 55.744 205.18 55.3089 206.24 54.4746C207.338 53.6213 207.906 52.4262 207.906 51.023C207.906 48.5394 206.24 47.1171 202.337 46.302C198.587 45.525 197.905 44.6908 197.905 43.3046C197.905 41.8442 199.306 40.8401 201.314 40.8401C203.056 40.8401 204.553 41.3899 206.049 42.5468L206.164 42.6423L207.451 41.012L207.336 40.9165C205.517 39.5134 203.72 38.9062 201.352 38.9062C198.074 38.9062 195.69 40.821 195.69 43.4575C195.69 44.8415 196.143 45.8286 197.11 46.6055C198 47.3082 199.382 47.8389 201.428 48.274C205.006 48.9958 205.67 49.83 205.67 51.1949C205.67 52.7509 204.231 53.7932 202.089 53.7932C199.948 53.7932 198.282 53.1479 196.446 51.5558L196.332 51.4603L194.969 53.0354L194.971 53.0311Z" fill="#FEFEFE"/>
<path d="M230.575 43.0742C226.863 43.0742 223.965 45.8805 223.965 49.4468C223.965 53.013 226.844 55.7811 230.536 55.7811C232.355 55.7811 234.041 55.1167 235.291 53.8855C236.504 52.6904 237.184 51.0983 237.184 49.4107C237.146 45.8635 234.267 43.0763 230.575 43.0763V43.0742ZM230.575 53.9025C228.092 53.9025 226.161 51.9304 226.161 49.4086C226.161 48.1752 226.596 47.0565 227.374 46.2414C228.169 45.4071 229.286 44.9529 230.536 44.9529C233.036 44.9529 234.988 46.9249 234.988 49.4659C234.988 50.6801 234.552 51.7988 233.757 52.6139C232.923 53.4291 231.806 53.9046 230.575 53.9046V53.9025Z" fill="#FEFEFE"/>
<path d="M248.454 55.5158H250.593V47.9863C250.593 46.5449 250.14 45.3116 249.306 44.4392C248.435 43.5476 247.204 43.0742 245.709 43.0742C241.997 43.0742 239.648 44.3436 239.553 44.4009L239.477 44.4392V55.5136H241.618V45.7086L241.656 45.6895C242.754 45.197 243.797 44.9868 245.179 44.9868C246.201 44.9868 247.034 45.3095 247.604 45.8975C248.153 46.4855 248.456 47.358 248.456 48.4193V55.5136L248.454 55.5158Z" fill="#FEFEFE"/>
<path d="M210.559 55.516H212.698V43.3398H210.559V55.516Z" fill="#FEFEFE"/>
<path d="M215.938 55.5158H218.079V45.577L218.098 45.5579C218.647 45.1779 219.442 44.9316 220.239 44.9316C221.547 44.9316 222.323 45.3668 223.079 45.785L223.306 45.9187L224.235 44.212L224.103 44.1356C222.929 43.4712 221.907 43.0742 220.239 43.0742C217.549 43.0742 216.054 44.1738 215.997 44.212L215.94 44.2502V55.5158H215.938Z" fill="#FEFEFE"/>
<path d="M239.459 18.8537V31.4459C239.459 32.6602 239.8 33.5708 240.445 34.1376C241.089 34.7065 241.865 34.8211 242.414 34.8211C243.095 34.8211 243.72 34.6895 244.345 34.403L243.701 32.7154C243.417 32.847 243.152 32.9234 242.887 32.9234C242.319 32.9234 241.598 32.9234 241.598 31.2167V24.2943H243.739V22.4348H241.598V18.8516H239.457L239.459 18.8537Z" fill="#FEFEFE"/>
<path d="M210.52 41.8406H212.81V39.7539H210.52V41.8406Z" fill="#FEFEFE"/>
<path d="M166.837 18.25C178.713 18.25 187.082 25.7986 187.027 36.6268C187.008 39.017 186.705 40.3055 186.251 42.0505C184.432 37.0259 179.281 35.0135 171.497 33.3832C160.323 30.7085 158.807 28.2249 158.43 24.7733V18.2691C158.411 18.2691 166.877 18.25 166.839 18.25H166.837Z" fill="#FEFEFE"/>
<path d="M181.667 48.0249C181.667 44.0044 179.509 42.0514 169.526 39.8883C163.485 38.5807 160.89 37.4981 158.391 35.4688V52.5379C161.761 54.6055 166.571 55.8558 169.092 55.8558C177.576 55.8558 181.667 52.1388 181.667 48.0228V48.0249Z" fill="#FEFEFE"/>
<path d="M245.654 32.9827L245.767 33.0782C247.168 34.1778 249.176 34.8614 250.975 34.8614C252.243 34.8614 253.379 34.5196 254.195 33.8934C255.067 33.2289 255.539 32.2822 255.539 31.1444V31.1062C255.539 28.7351 253.078 28.0345 251.467 27.559L251.429 27.5399C249.875 27.0857 248.4 26.6484 248.4 25.6634V25.6252C248.4 24.6954 249.328 24.0501 250.634 24.0501C251.77 24.0501 253.04 24.4492 254.215 25.1688L254.346 25.2452L255.351 23.6531L255.217 23.5767C253.892 22.7425 252.205 22.25 250.691 22.25C248.116 22.25 246.335 23.7105 246.335 25.7971V25.8354C246.335 28.1874 248.76 28.8497 250.539 29.3252C252.167 29.7603 253.513 30.2167 253.513 31.2781V31.3163C253.513 32.3586 252.546 33.0421 251.107 33.0421C249.667 33.0421 248.266 32.5306 246.903 31.5626L246.789 31.4671L245.652 32.9848L245.654 32.9827Z" fill="#FEFEFE"/>
<path d="M145 8.30469V59.8285" stroke="#FEFEFE" stroke-width="2" stroke-miterlimit="10"/>
</svg>
