<svg width="272" height="60" viewBox="0 0 272 60" fill="none" xmlns="http://www.w3.org/2000/svg">
<g clip-path="url(#clip0_1207_1118)">
<path d="M41.7536 14.4114V0C41.7536 0 14.0639 18.9021 8.26344 22.8763C4.32994 25.5712 3.57812 29.203 3.57812 30.6966C3.57812 32.1903 3.9823 35.2068 6.46991 38.4C9.76708 36.1741 41.7536 14.4114 41.7536 14.4114Z" fill="#FEFEFE"/>
<path d="M35.4658 21.6016L0 45.716V60.0016C0 60.0016 30.3669 39.2817 33.8816 36.8901C37.3963 34.4986 38.192 31.2525 38.1752 28.5958C38.1452 24.3467 35.4658 21.6016 35.4658 21.6016Z" fill="#FEFEFE"/>
<path d="M63.556 24.5374L66.1629 19.5606C66.1629 19.5606 63.753 18 59.1268 18C54.5006 18 49.3871 20.3555 49.316 26.098C49.26 30.6915 53.0725 31.3701 55.4264 32.1063C57.7803 32.8424 58.9298 32.9306 58.9298 34.4618C58.9298 35.993 57.1075 36.2159 56.5199 36.2281C53.8851 36.2869 50.5495 33.902 50.5495 33.902L47.7188 39.3493C47.7188 39.3493 51.3073 42 56.408 42C61.5087 42 66.8065 39.6151 66.8065 33.4304C66.8065 28.7181 62.8541 27.5397 60.1353 27.0106C57.6135 26.5194 56.8837 26.1568 56.8837 24.949C56.8837 23.7412 58.2851 23.4472 59.4906 23.4472C62.0147 23.4485 63.556 24.5374 63.556 24.5374Z" fill="#FEFEFE"/>
<path d="M70.4742 41.9992H78.1455V26.3537H82.3158V19.7758H78.1455V13.1992H70.502V19.7758H68V26.3537H70.4742V41.9992Z" fill="#FEFEFE"/>
<path d="M83.5078 41.9992H91.4269C91.4269 41.9992 91.4269 36.1461 91.4269 31.8135C91.4269 27.4822 94.4211 26.0481 96.9554 26.0481C99.4886 26.0481 100.21 26.7505 100.21 26.7505V19.1992C92.924 19.1992 91.4557 23.4137 91.4557 23.4137V19.579H83.5366L83.5078 41.9992Z" fill="#FEFEFE"/>
<path d="M206.532 26.164C203.003 26.164 201.487 28.6524 201.487 31.198C201.487 33.7448 202.829 36.2028 206.619 36.2028C210.41 36.2028 211.81 33.6852 211.81 31.1103C211.81 28.5343 210.061 26.164 206.532 26.164ZM211.459 39.8915C211.459 39.8915 209.359 43.1992 204.577 43.1992C199.794 43.1992 193.262 39.452 193.262 31.2869C193.262 23.1217 199.619 19.1992 204.547 19.1992C209.476 19.1992 211.663 22.3304 211.663 22.3304V19.8712H219.507V42.4968H211.459V39.8915Z" fill="#FEFEFE"/>
<path d="M135.729 19.1992H127.648C127.648 19.1992 127.648 28.21 127.648 32.3305C127.648 36.4497 128.966 41.9992 140.062 41.9992C151.157 41.9992 151.508 34.8756 151.508 32.8445C151.508 30.8134 151.508 19.3706 151.508 19.3706H143.457C143.457 19.3706 143.457 29.1547 143.457 31.6427C143.457 34.1319 142.549 35.8477 139.593 35.8477C136.636 35.8477 135.699 34.1605 135.699 32.0425C135.7 29.927 135.729 19.1992 135.729 19.1992Z" fill="#FEFEFE"/>
<path d="M162.934 19.8634H155.086V41.9992H162.934C162.934 41.9992 162.934 32.3723 162.934 29.4028C162.934 26.4344 164.56 25.2235 166.415 25.2235C168.27 25.2235 169.64 26.607 169.64 29.4603C169.64 32.3136 169.64 41.9692 169.64 41.9692H177.486C177.486 41.9692 177.486 33.1204 177.486 30.2671C177.486 27.4138 178.799 25.4249 181.168 25.4249C183.537 25.4249 184.363 27.0973 184.363 29.5754C184.363 32.0534 184.363 41.998 184.363 41.998H192.068C192.068 41.998 192.068 31.7657 192.068 26.6358C192.068 21.5046 188.415 19.1992 184.763 19.1992C181.11 19.1992 177.915 21.9374 177.315 23.8112C177.001 21.9662 174.091 19.1992 169.724 19.1992C165.359 19.1992 162.904 22.9181 162.904 22.9181L162.934 19.8634Z" fill="#FEFEFE"/>
<path d="M112.314 24.9657C108.786 24.9657 107.27 27.4527 107.27 29.9994C107.27 32.5461 108.611 35.0039 112.402 35.0039C116.193 35.0039 117.593 32.4876 117.593 29.9117C117.593 27.3358 115.844 24.9657 112.314 24.9657ZM117.213 38.6925C117.213 38.6925 115.114 42 110.331 42C105.549 42 99.0156 38.253 99.0156 30.0883C99.0156 21.9223 105.373 18 110.302 18C115.23 18 117.417 21.131 117.417 21.131V18.672H125.261V41.2964H117.212L117.213 38.6925Z" fill="#FEFEFE"/>
<path d="M249.332 41.9992V19.7244H256.869V22.9345C256.869 22.9345 258.727 19.1992 263.735 19.1992C268.742 19.1992 271.999 21.8001 271.999 28.3029C271.999 34.8057 271.999 41.9992 271.999 41.9992H264.299C264.299 41.9992 264.299 31.9818 264.299 29.4373C264.299 26.8915 263.33 25.3975 260.773 25.3975C258.215 25.3975 256.869 27.0019 256.869 30.9314C256.869 34.8609 256.869 41.9992 256.869 41.9992H249.332Z" fill="#FEFEFE"/>
<path d="M223.086 41.9992V19.7244H230.624V22.9345C230.624 22.9345 232.481 19.1992 237.488 19.1992C242.495 19.1992 245.753 21.8001 245.753 28.3029C245.753 34.8057 245.753 41.9992 245.753 41.9992H238.054C238.054 41.9992 238.054 31.9818 238.054 29.4373C238.054 26.8915 237.084 25.3975 234.528 25.3975C231.97 25.3975 230.624 27.0019 230.624 30.9314C230.624 34.8609 230.624 41.9992 230.624 41.9992H223.086Z" fill="#FEFEFE"/>
</g>
<defs>
<clipPath id="clip0_1207_1118">
<rect width="272" height="60" fill="white"/>
</clipPath>
</defs>
</svg>
